<?xml version="1.0" encoding="utf-8"?>
<!-- Generator: Adobe Illustrator 16.0.0, SVG Export Plug-In . SVG Version: 6.00 Build 0)  -->
<!DOCTYPE svg PUBLIC "-//W3C//DTD SVG 1.1//EN" "http://www.w3.org/Graphics/SVG/1.1/DTD/svg11.dtd">
<svg version="1.1" id="Layer_1" xmlns="http://www.w3.org/2000/svg" xmlns:xlink="http://www.w3.org/1999/xlink" x="0px" y="0px"
	 width="64px" height="100px" viewBox="0 0 64 100" enable-background="new 0 0 64 100" xml:space="preserve">
<image overflow="visible" width="376" height="533" xlink:href="pet-bottle.png"  transform="matrix(0.214 0 0 0.214 -7.6221 -6.0425)">
</image>
<polygon fill="none" stroke="#000000" points="23.667,2 32.618,1.125 41.875,2 42.688,3.438 43.188,11.062 46.375,12.25 47,13.688 
	47,17.75 47.938,20.438 55.167,31.333 60.833,50 62.167,64.167 61.334,79.833 59.5,90.333 59.5,93.167 56.834,95.667 51.5,97.833 
	38.438,98.375 14.625,97.688 8.5,96 4,85.167 1.667,65.5 4.667,45.833 14.5,26.333 19,18.667 19,12.167 22.667,9.833 "/>
</svg>
